<?xml version="1.0" standalone="no"?>
<!DOCTYPE svg PUBLIC "-//W3C//DTD SVG 20010904//EN"
 "http://www.w3.org/TR/2001/REC-SVG-20010904/DTD/svg10.dtd">
<svg version="1.0" xmlns="http://www.w3.org/2000/svg"
 width="512.000000pt" height="512.000000pt" viewBox="0 0 512.000000 512.000000"
 preserveAspectRatio="xMidYMid meet">

<g transform="translate(0.000000,512.000000) scale(0.100000,-0.100000)"
fill="#000000" stroke="none">
<path d="M2416 5110 c-411 -65 -741 -362 -842 -759 -116 -451 94 -930 505
-1149 619 -330 1370 42 1486 738 86 512 -246 1016 -754 1146 -108 28 -296 39
-395 24z m377 -175 c286 -83 504 -293 595 -575 158 -485 -149 -1007 -653
-1111 -451 -93 -896 183 -1017 631 -30 112 -32 318 -4 425 64 246 236 459 461
573 69 34 181 70 258 83 93 14 263 3 360 -26z"/>
<path d="M2985 4429 c-11 -6 -143 -133 -292 -282 l-273 -271 -143 142 c-155
153 -170 161 -221 121 -18 -14 -26 -30 -26 -52 0 -28 19 -52 153 -184 152
-152 181 -173 239 -173 65 0 111 37 391 318 248 249 277 282 277 311 0 21 -9
41 -25 56 -26 27 -49 31 -80 14z"/>
<path d="M1041 3599 c-28 -6 -95 -68 -348 -321 -339 -340 -340 -341 -288 -393
51 -52 54 -50 375 270 l295 295 197 -198 196 -197 -458 -464 c-401 -407 -460
-463 -474 -452 -9 8 -98 99 -197 203 l-182 189 82 83 c90 93 99 119 56 161
-44 45 -68 35 -177 -72 -107 -105 -126 -141 -113 -209 6 -32 39 -71 228 -262
122 -123 234 -230 249 -238 43 -22 108 -18 149 11 l37 24 367 -375 367 -374
-34 -43 c-48 -58 -66 -95 -73 -153 -18 -131 70 -256 201 -285 51 -11 54 -14
60 -48 22 -114 96 -191 208 -216 49 -11 51 -13 57 -51 9 -57 24 -88 64 -132
40 -45 86 -70 147 -80 40 -7 42 -9 53 -58 29 -128 122 -203 253 -204 73 0 119
17 179 66 l43 36 47 -41 c47 -42 120 -71 178 -71 51 0 127 27 167 60 43 35 88
121 88 166 0 30 3 32 44 38 104 16 202 112 213 211 5 39 9 46 32 51 101 20
148 48 193 115 15 22 32 65 38 95 10 49 14 54 38 54 39 1 112 36 150 73 103
98 107 252 10 362 l-41 46 139 142 c76 78 242 247 369 375 l230 234 28 -17
c15 -9 42 -21 58 -25 67 -19 83 -8 308 214 117 116 226 231 242 255 31 48 36
82 18 128 -5 15 -155 173 -332 351 -307 307 -323 322 -359 322 -43 0 -68 -27
-68 -74 0 -26 41 -72 307 -338 l306 -307 -181 -189 c-100 -104 -189 -195 -198
-203 -14 -11 -73 45 -474 452 l-458 464 196 197 196 197 67 -64 c56 -54 73
-65 101 -65 43 0 71 28 71 71 0 25 -15 46 -85 115 -60 61 -94 87 -119 93 -75
16 -88 7 -326 -231 -123 -122 -231 -236 -240 -252 -20 -39 -12 -109 17 -148
l22 -30 -50 -50 -50 -50 -85 12 c-114 17 -298 8 -402 -20 -99 -26 -261 -104
-340 -165 -33 -25 -62 -45 -65 -45 -3 0 -32 20 -65 45 -80 61 -242 140 -340
166 -102 27 -293 36 -406 20 l-82 -13 -50 50 -49 50 22 30 c29 39 37 109 17
148 -9 16 -116 129 -240 252 -237 237 -251 247 -326 231z m490 -835 c78 -77
103 -86 204 -68 96 18 249 17 333 -1 129 -27 268 -91 353 -162 l30 -26 -280
-281 c-307 -308 -325 -332 -325 -436 -1 -79 26 -141 84 -193 54 -49 103 -67
181 -67 94 1 125 22 355 251 l210 209 54 0 54 0 438 -437 c240 -240 442 -449
449 -465 29 -70 -26 -148 -103 -148 -39 0 -47 6 -173 130 -120 119 -134 130
-167 130 -40 0 -78 -35 -78 -72 0 -12 53 -75 129 -152 135 -140 153 -172 132
-228 -22 -57 -99 -85 -154 -57 -12 6 -76 65 -143 130 -132 130 -154 140 -199
94 -47 -46 -37 -65 105 -210 130 -132 135 -141 130 -205 -5 -61 -90 -106 -146
-77 -43 23 -169 156 -193 203 -24 48 -90 109 -135 124 l-32 10 4 68 c3 55 0
79 -18 120 -47 109 -172 177 -278 153 -41 -9 -41 -8 -56 29 -50 125 -212 196
-333 145 -46 -19 -50 -19 -58 6 -11 33 -74 98 -119 122 -58 30 -175 31 -231 0
l-40 -21 -371 376 -371 377 341 347 c187 190 343 347 346 347 2 1 34 -29 71
-65z m2477 -285 l342 -346 -326 -334 c-179 -184 -346 -354 -370 -379 l-44 -45
-363 362 c-399 399 -405 404 -520 404 -102 0 -123 -14 -347 -236 -113 -111
-215 -208 -227 -214 -34 -17 -88 -13 -116 9 -31 25 -50 78 -41 116 8 36 616
651 715 725 76 56 206 120 294 144 89 24 240 30 356 15 129 -17 156 -9 234 70
33 33 62 59 65 58 3 -2 160 -159 348 -349z m-2269 -1225 c36 -30 49 -81 31
-123 -16 -40 -160 -178 -194 -187 -44 -11 -98 16 -120 59 -30 63 -18 92 83
190 82 80 92 87 129 87 29 0 49 -7 71 -26z m378 -134 c41 -25 58 -79 39 -124
-8 -17 -79 -95 -158 -173 -129 -128 -148 -143 -179 -143 -78 0 -133 72 -109
144 7 21 60 82 154 175 135 132 146 141 182 141 22 0 53 -9 71 -20z m317 -174
c46 -19 66 -52 66 -105 l0 -45 -188 -188 -188 -188 -45 0 c-79 0 -128 62 -107
135 10 36 338 370 383 391 38 17 39 17 79 0z m204 -346 c35 -22 52 -54 52
-102 0 -27 -21 -53 -151 -184 -93 -94 -161 -154 -176 -157 -93 -18 -163 78
-119 161 16 30 260 273 291 290 30 17 66 14 103 -8z m222 -262 c96 -132 -64
-261 -174 -139 -19 20 -18 21 48 91 36 39 66 75 66 80 0 24 32 7 60 -32z"/>
<path d="M1100 3080 c-11 -11 -20 -33 -20 -49 0 -71 80 -101 127 -47 28 33 29
56 2 90 -26 33 -79 36 -109 6z"/>
<path d="M4017 3083 c-46 -51 -14 -126 53 -126 62 0 94 79 50 123 -25 25 -81
26 -103 3z"/>
</g>
</svg>
