<?xml version="1.0" standalone="no"?>
<!DOCTYPE svg PUBLIC "-//W3C//DTD SVG 20010904//EN"
 "http://www.w3.org/TR/2001/REC-SVG-20010904/DTD/svg10.dtd">
<svg version="1.0" xmlns="http://www.w3.org/2000/svg"
 width="512.000000pt" height="512.000000pt" viewBox="0 0 512.000000 512.000000"
 preserveAspectRatio="xMidYMid meet">

<g transform="translate(0.000000,512.000000) scale(0.100000,-0.100000)"
fill="#000000" stroke="none">
<path d="M1585 4725 c-478 -84 -888 -377 -1098 -784 -109 -210 -154 -386 -164
-631 -16 -418 124 -783 416 -1083 320 -330 734 -493 1168 -458 71 6 162 17
203 26 233 48 493 175 663 324 32 28 61 51 65 51 7 0 223 -199 311 -285 l35
-34 -66 -68 c-101 -105 -130 -179 -108 -272 6 -27 24 -65 38 -85 15 -19 240
-235 500 -479 493 -464 528 -492 646 -523 293 -78 606 169 606 480 0 125 -44
233 -137 333 -108 116 -937 885 -976 905 -52 26 -144 29 -200 5 -22 -9 -73
-52 -116 -98 l-77 -81 -172 162 -172 162 21 27 c57 74 154 229 188 303 48 104
94 246 117 363 25 126 25 414 0 540 -94 472 -386 860 -801 1064 -132 65 -206
93 -335 123 -113 26 -435 34 -555 13z m458 -161 c253 -42 500 -168 683 -349
480 -475 556 -1141 192 -1687 -78 -117 -233 -277 -346 -358 -123 -89 -304
-174 -448 -212 -113 -30 -129 -32 -304 -32 -213 0 -295 14 -472 83 -446 175
-752 537 -845 999 -24 119 -24 375 0 494 104 517 489 922 992 1044 185 44 354
50 548 18z m1637 -2618 c30 -29 245 -231 477 -450 486 -457 478 -447 478 -596
0 -101 -20 -154 -85 -224 -64 -69 -136 -100 -236 -100 -138 -1 -143 2 -678
507 -272 257 -467 448 -470 462 -3 13 -3 32 2 43 10 27 362 402 387 413 35 14
68 -1 125 -55z"/>
<path d="M1720 4109 c-83 -14 -192 -70 -260 -134 -94 -91 -159 -241 -160 -371
0 -66 38 -195 75 -254 30 -47 32 -56 19 -65 -9 -5 -43 -28 -77 -50 -139 -89
-280 -256 -341 -401 -35 -86 -66 -201 -66 -249 0 -58 37 -124 88 -160 l44 -30
744 -3 c498 -2 758 1 784 8 50 14 95 52 122 103 16 33 19 53 16 106 -6 83 -52
217 -109 318 -56 100 -224 271 -320 326 l-67 38 34 56 c54 90 69 146 69 253
-1 72 -6 111 -23 162 -62 180 -212 315 -386 347 -68 13 -108 12 -186 0z m230
-185 c294 -134 262 -560 -49 -651 -152 -44 -323 34 -399 182 -20 39 -26 69
-30 135 -5 106 19 176 83 247 104 116 257 150 395 87z m-349 -778 c141 -62
282 -61 423 2 l59 26 71 -37 c188 -97 330 -274 383 -480 30 -113 105 -102
-724 -105 -639 -2 -722 0 -733 13 -11 13 -11 27 -1 73 35 160 134 314 272 425
43 34 171 107 188 107 5 0 33 -11 62 -24z"/>
<path d="M860 1615 c-226 -51 -408 -223 -476 -451 -24 -78 -23 -235 0 -324 61
-226 241 -398 468 -446 96 -21 249 -14 338 16 200 66 348 224 401 427 23 91
28 224 10 303 -49 212 -229 401 -441 464 -79 24 -221 29 -300 11z m287 -176
c199 -68 315 -251 300 -474 -12 -195 -131 -348 -316 -405 -256 -80 -520 61
-587 315 -16 59 -18 182 -3 244 50 217 252 362 482 345 37 -3 93 -14 124 -25z"/>
<path d="M1243 1220 c-12 -5 -102 -63 -201 -129 l-179 -119 -47 89 c-49 92
-66 109 -111 109 -33 0 -75 -41 -75 -74 0 -28 123 -269 152 -298 40 -40 70
-27 316 137 239 160 259 179 246 230 -11 44 -60 71 -101 55z"/>
</g>
</svg>
